<svg width="23" height="23" viewBox="0 0 23 23" fill="none" xmlns="http://www.w3.org/2000/svg">
<path d="M21.0833 11.5C21.0833 16.7927 16.7927 21.0833 11.5 21.0833M21.0833 11.5C21.0833 6.20723 16.7927 1.91663 11.5 1.91663M21.0833 11.5H1.91667M11.5 21.0833C6.20728 21.0833 1.91667 16.7927 1.91667 11.5M11.5 21.0833C13.8971 18.459 15.2593 15.0534 15.3333 11.5C15.2593 7.94649 13.8971 4.54088 11.5 1.91663M11.5 21.0833C9.10295 18.459 7.7407 15.0534 7.66667 11.5C7.7407 7.94649 9.10295 4.54088 11.5 1.91663M1.91667 11.5C1.91667 6.20723 6.20728 1.91663 11.5 1.91663" stroke="#BCDD19" stroke-width="2" stroke-linecap="round" stroke-linejoin="round"/>
</svg>
