<svg width="55" height="55" viewBox="0 0 55 55" fill="none" xmlns="http://www.w3.org/2000/svg">
<rect width="55" height="55" rx="15" fill="#768529" fill-opacity="0.1"/>
<g clip-path="url(#clip0_425_621)">
<path d="M37.0834 27.5C37.0834 32.7927 32.7928 37.0833 27.5 37.0833M37.0834 27.5C37.0834 22.2072 32.7928 17.9166 27.5 17.9166M37.0834 27.5H17.9167M27.5 37.0833C22.2073 37.0833 17.9167 32.7927 17.9167 27.5M27.5 37.0833C29.8971 34.459 31.2593 31.0534 31.3334 27.5C31.2593 23.9465 29.8971 20.5409 27.5 17.9166M27.5 37.0833C25.103 34.459 23.7407 31.0534 23.6667 27.5C23.7407 23.9465 25.103 20.5409 27.5 17.9166M17.9167 27.5C17.9167 22.2072 22.2073 17.9166 27.5 17.9166" stroke="#BCDD19" stroke-width="2" stroke-linecap="round" stroke-linejoin="round"/>
</g>
<defs>
<clipPath id="clip0_425_621">
<rect width="23" height="23" fill="white" transform="translate(16 16)"/>
</clipPath>
</defs>
</svg>
