<svg width="55" height="55" viewBox="0 0 55 55" fill="none" xmlns="http://www.w3.org/2000/svg">
<rect width="55" height="55" rx="15" fill="#768529" fill-opacity="0.1"/>
<path d="M27.5259 18.3092C27.5698 18.2164 27.6375 18.1382 27.7214 18.0836C27.8053 18.029 27.9021 18 28.0009 18C28.0997 18 28.1965 18.029 28.2804 18.0836C28.3643 18.1382 28.432 18.2164 28.4759 18.3092L30.7856 23.2159C30.9378 23.5388 31.1624 23.8182 31.4402 24.0301C31.718 24.242 32.0407 24.38 32.3805 24.4323L37.546 25.2251C37.6439 25.24 37.7359 25.2833 37.8115 25.3501C37.8871 25.4169 37.9434 25.5046 37.974 25.6033C38.0046 25.7019 38.0083 25.8075 37.9846 25.9082C37.9609 26.0089 37.9108 26.1007 37.84 26.1731L34.1043 29.9881C33.858 30.2399 33.6737 30.5507 33.5672 30.8937C33.4608 31.2368 33.4355 31.6019 33.4934 31.9575L34.3753 37.3476C34.3926 37.4502 34.382 37.5558 34.3448 37.6524C34.3076 37.749 34.2453 37.8327 34.1649 37.8939C34.0845 37.9551 33.9893 37.9914 33.8902 37.9987C33.7911 38.0059 33.6921 37.9838 33.6044 37.9348L28.9868 35.3887C28.6826 35.2211 28.344 35.1336 28.0004 35.1336C27.6567 35.1336 27.3182 35.2211 27.014 35.3887L22.3974 37.9348C22.3097 37.9835 22.2108 38.0054 22.1119 37.998C22.0129 37.9906 21.918 37.9543 21.8377 37.8931C21.7575 37.8319 21.6953 37.7483 21.6581 37.6519C21.621 37.5555 21.6103 37.45 21.6275 37.3476L22.5084 31.9585C22.5666 31.6027 22.5414 31.2375 22.4349 30.8942C22.3285 30.5509 22.144 30.2399 21.8974 29.9881L18.1618 26.1741C18.0904 26.1018 18.0398 26.0099 18.0158 25.9089C17.9917 25.8079 17.9952 25.7019 18.0259 25.6028C18.0565 25.5038 18.1131 25.4158 18.1891 25.3488C18.2651 25.2819 18.3575 25.2386 18.4558 25.2241L23.6203 24.4323C23.9605 24.3804 24.2836 24.2426 24.5618 24.0307C24.84 23.8188 25.0649 23.5392 25.2171 23.2159L27.5259 18.3092Z" stroke="#BCDD19" stroke-width="2" stroke-linecap="round" stroke-linejoin="round"/>
</svg>
