<svg width="55" height="55" viewBox="0 0 55 55" fill="none" xmlns="http://www.w3.org/2000/svg">
<rect width="55" height="55" rx="15" fill="#768529" fill-opacity="0.1"/>
<path d="M28 38C33.5228 38 38 33.5228 38 28C38 22.4772 33.5228 18 28 18C22.4772 18 18 22.4772 18 28C18 33.5228 22.4772 38 28 38Z" stroke="#BCDD19" stroke-width="2" stroke-linecap="round" stroke-linejoin="round"/>
<path d="M28 34C31.3137 34 34 31.3137 34 28C34 24.6863 31.3137 22 28 22C24.6863 22 22 24.6863 22 28C22 31.3137 24.6863 34 28 34Z" stroke="#BCDD19" stroke-width="2" stroke-linecap="round" stroke-linejoin="round"/>
<path d="M28 30C29.1046 30 30 29.1046 30 28C30 26.8954 29.1046 26 28 26C26.8954 26 26 26.8954 26 28C26 29.1046 26.8954 30 28 30Z" stroke="#BCDD19" stroke-width="2" stroke-linecap="round" stroke-linejoin="round"/>
</svg>
