<svg width="49" height="49" viewBox="0 0 49 49" fill="none" xmlns="http://www.w3.org/2000/svg">
<path d="M0 15C0 6.71573 6.71573 0 15 0H34C42.2843 0 49 6.71573 49 15V34C49 42.2843 42.2843 49 34 49H15C6.71573 49 0 42.2843 0 34V15Z" fill="#BCDD19"/>
<path d="M28.5519 38.0064V32.6038C28.7398 30.9119 28.2547 29.2139 27.2013 27.8766C31.2532 27.8766 35.3051 25.1753 35.3051 20.4481C35.4132 18.7598 34.9405 17.0985 33.9545 15.7208C34.3327 14.1676 34.3327 12.5468 33.9545 10.9936C33.9545 10.9936 32.6038 10.9936 29.9026 13.0196C26.3369 12.3442 22.6631 12.3442 19.0974 13.0196C16.3962 10.9936 15.0455 10.9936 15.0455 10.9936C14.6403 12.5468 14.6403 14.1676 15.0455 15.7208C14.0621 17.0929 13.5848 18.7635 13.6949 20.4481C13.6949 25.1753 17.7468 27.8766 21.7987 27.8766C21.272 28.5384 20.8803 29.2948 20.6507 30.1052C20.4211 30.9155 20.3535 31.7664 20.4481 32.6038V38.0064" stroke="black" stroke-width="2" stroke-linecap="round" stroke-linejoin="round"/>
<path d="M20.4479 32.6039C14.3565 35.3051 13.6947 29.9026 10.9934 29.9026" stroke="black" stroke-width="2" stroke-linecap="round" stroke-linejoin="round"/>
</svg>
