<svg width="24" height="30" viewBox="0 0 24 30" fill="none" xmlns="http://www.w3.org/2000/svg">
<path d="M12 27.5C17.5228 27.5 22 21.9036 22 15C22 8.09644 17.5228 2.5 12 2.5C6.47715 2.5 2 8.09644 2 15C2 21.9036 6.47715 27.5 12 27.5Z" stroke="#BCDD19" stroke-width="2" stroke-linecap="round" stroke-linejoin="round"/>
<path d="M12 22.5C15.3137 22.5 18 19.1421 18 15C18 10.8579 15.3137 7.5 12 7.5C8.68629 7.5 6 10.8579 6 15C6 19.1421 8.68629 22.5 12 22.5Z" stroke="#BCDD19" stroke-width="2" stroke-linecap="round" stroke-linejoin="round"/>
<path d="M12 17.5C13.1046 17.5 14 16.3807 14 15C14 13.6193 13.1046 12.5 12 12.5C10.8954 12.5 10 13.6193 10 15C10 16.3807 10.8954 17.5 12 17.5Z" stroke="#BCDD19" stroke-width="2" stroke-linecap="round" stroke-linejoin="round"/>
</svg>
