<svg width="22" height="26" viewBox="0 0 22 26" fill="none" xmlns="http://www.w3.org/2000/svg">
<path d="M10.5268 1.36862C10.5706 1.25794 10.6383 1.16478 10.7223 1.09965C10.8062 1.03451 10.903 1 11.0018 1C11.1006 1 11.1974 1.03451 11.2813 1.09965C11.3653 1.16478 11.433 1.25794 11.4768 1.36862L13.7868 7.21737C13.939 7.60233 14.1636 7.93538 14.4414 8.18793C14.7192 8.44049 15.0419 8.60501 15.3818 8.66737L20.5478 9.61237C20.6457 9.6301 20.7376 9.68171 20.8133 9.76137C20.8889 9.84103 20.9452 9.94555 20.9758 10.0631C21.0064 10.1807 21.0101 10.3066 20.9864 10.4267C20.9627 10.5467 20.9126 10.6561 20.8418 10.7424L17.1058 15.2899C16.8594 15.59 16.6751 15.9605 16.5686 16.3694C16.4622 16.7783 16.4369 17.2135 16.4948 17.6374L17.3768 24.0624C17.3941 24.1847 17.3835 24.3106 17.3463 24.4257C17.3091 24.5409 17.2467 24.6406 17.1663 24.7136C17.086 24.7866 16.9908 24.8299 16.8917 24.8385C16.7926 24.8471 16.6935 24.8207 16.6058 24.7624L11.9878 21.7274C11.6835 21.5277 11.345 21.4233 11.0013 21.4233C10.6576 21.4233 10.3191 21.5277 10.0148 21.7274L5.3978 24.7624C5.31013 24.8204 5.2112 24.8465 5.11225 24.8377C5.0133 24.8289 4.91832 24.7856 4.83809 24.7126C4.75787 24.6397 4.69563 24.5401 4.65846 24.4251C4.62128 24.3102 4.61066 24.1845 4.6278 24.0624L5.5088 17.6386C5.567 17.2145 5.54178 16.7791 5.43534 16.3699C5.32889 15.9607 5.14441 15.5901 4.8978 15.2899L1.1618 10.7436C1.09039 10.6574 1.03979 10.5479 1.01576 10.4275C0.991731 10.3071 0.995237 10.1806 1.02588 10.0626C1.05652 9.94457 1.11307 9.83967 1.18908 9.75985C1.26509 9.68002 1.3575 9.62849 1.4558 9.61112L6.6208 8.66737C6.96106 8.60549 7.28419 8.44119 7.56238 8.1886C7.84058 7.93601 8.0655 7.60271 8.2178 7.21737L10.5268 1.36862Z" stroke="#BCDD19" stroke-width="2" stroke-linecap="round" stroke-linejoin="round"/>
</svg>
